<?xml version="1.0" standalone="no"?>
<!DOCTYPE svg PUBLIC "-//W3C//DTD SVG 20010904//EN"
 "http://www.w3.org/TR/2001/REC-SVG-20010904/DTD/svg10.dtd">
<svg version="1.0" xmlns="http://www.w3.org/2000/svg"
 width="700.000000pt" height="700.000000pt" viewBox="0 0 700.000000 700.000000"
 preserveAspectRatio="xMidYMid meet">
<metadata>
Created by potrace 1.14, written by Peter Selinger 2001-2017
</metadata>
<g transform="translate(0.000000,700.000000) scale(0.100000,-0.100000)"
fill="#000000" stroke="none">
<path d="M4898 5115 c-1 -2 -23 -6 -47 -10 -157 -23 -381 -150 -596 -336 -42
-36 -148 -131 -161 -143 -36 -35 -247 -231 -288 -267 -27 -24 -60 -53 -72 -64
-194 -173 -430 -313 -570 -340 -157 -29 -342 -22 -504 22 -95 25 -232 81 -282
115 -14 10 -28 18 -31 18 -3 0 -41 21 -84 47 -304 181 -498 214 -804 139 -60
-15 -239 -80 -268 -98 -143 -87 -235 -241 -261 -436 -8 -63 -6 -369 3 -402 2
-8 7 -33 12 -55 75 -387 306 -686 668 -864 208 -103 358 -145 616 -175 108
-12 363 -14 426 -3 17 3 59 9 95 12 56 6 257 52 300 69 9 4 33 -11 61 -37 52
-48 61 -55 144 -118 137 -104 341 -208 512 -263 93 -29 201 -55 253 -61 19 -2
64 -8 99 -13 69 -10 320 -8 386 2 338 55 610 183 840 398 132 123 201 199 300
333 41 55 78 105 83 110 25 31 110 184 152 270 132 276 192 519 193 785 1 80
-2 168 -7 195 -4 28 -9 59 -10 70 -17 132 -90 331 -174 470 -91 153 -251 330
-387 430 -22 17 -42 32 -45 35 -33 36 -209 122 -298 146 -50 14 -244 28 -254
19z"/>
</g>
</svg>
